<?xml version="1.0" encoding="utf-8" ?><svg xmlns="http://www.w3.org/2000/svg" xmlns:xlink="http://www.w3.org/1999/xlink" width="1024" height="1024" viewBox="300 178 436 436"><path fill="#4ecdb8" d="M337.348 439.421C335.924 431.84 334.909 424.666 333.935 417.014C333.278 411.841 331.888 406.309 331.421 401.084C330.232 387.771 331.302 374.956 333.476 361.824C338.55 331.171 351.285 301.768 371.061 277.724C374.687 273.316 379.603 269.335 383.367 265.144C401.689 244.741 418.487 233.409 443.825 223.258C453.217 219.446 462.876 216.327 472.724 213.928C475.808 213.181 485.28 211.751 487.078 210.477L486.743 210.073C485.213 210.339 483.678 210.582 482.14 210.801L482.26 210.195C485.851 208.237 495.272 206.207 499.108 205.985C507.742 205.484 540.725 204.781 547.876 206.723C550.117 207.491 552.62 208.284 554.805 209.135C550.948 209.087 526.863 207.939 525.395 208.688C532.683 209.879 538.125 209.457 545.354 209.715C544.095 211.165 542.636 212.274 542.562 213.852C543.629 214.513 544.7 215.169 545.774 215.819L543.15 216.162L543.43 216.637C548.668 217.665 553.9 218.875 559.134 219.957L557.082 221.443C562.37 224.985 577.265 228.531 583.555 231.324C589.688 233.831 596.668 237.485 602.639 239.624C601.427 237.865 586.383 231.256 583.814 230.671L582.697 229.66L583.031 229.335C589.003 231.067 595.907 234.652 601.436 237.104C619.586 245.15 633.533 257.626 645.469 273.225C647.225 275.52 651.978 278.353 653.875 280.827C661.077 292.43 672.866 304.456 676.264 317.73C673.704 317.9 670.337 315.398 668.491 313.824C673.971 326.094 680.401 342.48 684.29 355.441C685.105 358.155 683.797 364.609 684.299 366.908C685.489 372.362 686.467 376.419 687.179 382.043L686.998 382.502C684.916 378.611 684.704 368.028 683.168 363.439C682.557 361.612 680.134 355.263 678.927 354.034L678.638 355.611L678.158 355.82C676.476 352.592 675.618 347.179 674.009 343.705C668.177 331.116 655.013 308.052 645.416 298.624C647.281 301.581 649.663 304.821 650.671 308.077L650.322 308.698C648.865 308.292 649.418 308.246 648.062 308.543C648.101 310.256 650.297 314.626 651.125 316.465C647.752 312.193 647.731 309.862 642.845 305.985L642.251 305.518C643.781 307.777 650.497 317.44 650.331 319.292L649.437 319.494C640.863 316.014 636.853 302.879 628.921 296.65C627.632 295.638 609.457 280.076 609.881 280.897C611.137 280.298 612.662 282.013 615.51 282.51L615.807 281.825C612.728 274.671 598.982 268.865 592.657 264.604C578.672 255.182 569.301 248.581 551.354 249.332L551.183 249.865L553.272 251.365C550.487 251.879 538.911 250.665 534.983 250.562C505.501 249.788 489.225 247.415 461.877 260.236C452.083 265.134 442.58 270.258 433.811 276.735C400.394 301.417 377.2 337.81 372.318 379.381C372.133 380.955 371.897 386.528 371.149 387.191C370.58 385.729 370.595 385.731 370.427 384.164C370.944 382.753 371.563 377.82 371.519 376.257C371.209 365.337 376.471 353.208 377.498 343.087C373.373 352.32 368.727 376.747 368.874 386.882C368.191 390.952 368.713 397.709 369.081 401.817C371.119 424.607 379.771 446.27 390.475 466.293C392.249 469.612 396.053 477.145 398.242 479.919C413.544 499.317 435.423 516.537 458.5 525.456C468.543 529.435 479.027 532.197 489.302 535.488C490.42 535.846 495.356 537.794 495.881 538.42C499.821 543.112 506.224 542.398 512.21 543.147L512.28 543.556C508.096 544.391 502.324 542.956 497.946 542.351C468.131 538.229 448.607 527.504 422.899 513.168C442.008 530.564 475.187 543.654 501.237 547.689C502.097 547.822 504.924 546.962 505.963 547.101C509.951 548.508 509.147 548.822 513.773 549.348C522.43 550.358 531.163 550.554 539.857 549.935C559.11 548.527 576.513 541.04 594.192 533.498C611.51 526.11 630.052 516.252 642.386 501.649C646.015 497.351 649.122 492.401 652.677 488.022C666.665 469.633 681.174 450.604 686.609 427.683C686.941 426.282 687.872 422.446 688.663 421.334L689.665 422.22C691.995 419.123 695.811 398.724 696.227 394.247C696.509 394.798 696.305 394.452 696.945 395.215C697.46 393.951 697.57 393.022 697.81 391.696C699.03 429.106 685.155 471.994 662.638 502.07C660.075 505.495 655.841 508.088 652.993 511.298C647.03 518.018 641.116 524.776 634.069 530.412C602.126 555.895 559.023 568.758 519.032 572.738C528.379 573.95 535.819 573.527 545.096 572.377C548.293 571.98 555.246 570.769 558.078 571.029L558.52 571.624C553.473 573.371 532.063 573.662 530.048 577.487C532.502 579.053 543.252 577.547 546.627 577.255C572.157 575.053 595.922 565.918 617.812 552.926C623.476 549.564 629.363 544.69 635.005 541.784C626.544 550.66 613.551 558.538 602.56 564.001C558.354 585.975 503.14 587.788 456.778 571.988C419.384 559.245 389.759 536.452 366.425 504.877C359.765 495.864 352.855 487.324 347.793 477.138C345.192 471.905 343.101 466.912 341.45 461.295C340.633 458.518 339.582 451.026 338.57 448.986C336.945 449.983 337.661 449.99 336.309 449.692C333.56 443.142 330.71 428.178 332.083 421.346C333.363 423.132 335.241 435.237 337.348 439.421ZM346.923 343.384L347.705 344.169C347.258 345.803 347.218 345.212 347.448 346.767C349.744 344.926 354.838 330.252 355.107 326.964L354.509 326.792L352.521 326.553C358.755 311.27 364.321 297.312 375.282 284.643C377.167 282.62 378.619 279.845 381.277 278.77C382.045 278.46 384.259 277.8 384.697 277.304C395.878 264.629 408.551 253.464 422.903 244.472C428.582 240.914 435.003 238.29 440.64 234.251L441.296 233.787C441.425 233.692 441.554 233.596 441.683 233.501C424.799 239.19 417.95 243.104 403.897 253.636C381.757 270.23 366.596 290.36 354.324 314.996C344.577 334.21 341.058 347.525 340.041 369.029C342.589 360.55 344.23 351.984 346.923 343.384ZM379.475 288.116C381.941 285.805 396.434 271.136 396.475 268.994C389.114 274.498 383.929 279.509 379.336 287.399L379.475 288.116ZM475.107 246.054C477.648 245.505 486.974 243.775 488.389 242.326L488.038 241.966L486.2 242.127C481.856 242.809 477.602 243.976 473.517 245.605L473.221 246.262C473.676 246.214 474.687 246.131 475.107 246.054ZM655.815 293.65C653.496 290.224 649.541 284.158 646.267 281.887C648.117 284.948 652.664 292.107 655.815 293.65Z"/><path fill="#F1F3F3" fill-opacity="0.011764706" d="M396.475 268.994C396.434 271.136 381.941 285.805 379.475 288.116L379.336 287.399C383.929 279.509 389.114 274.498 396.475 268.994Z"/><path fill="#F1F3F3" fill-opacity="0.0078431377" d="M354.509 326.792L355.107 326.964C354.838 330.252 349.744 344.926 347.448 346.767C347.218 345.212 347.258 345.803 347.705 344.169C348.942 339.286 351.471 330.724 354.509 326.792Z"/><path fill="#5eead4" fill-opacity="0.93725491" d="M352.521 326.553L354.509 326.792C351.471 330.724 348.942 339.286 347.705 344.169L346.923 343.384C348.517 337.851 350.639 332.028 352.521 326.553Z"/><path fill="#F1F3F3" fill-opacity="0.06666667" d="M646.267 281.887C649.541 284.158 653.496 290.224 655.815 293.65C652.664 292.107 648.117 284.948 646.267 281.887Z"/><path fill="#4ecdb8" d="M453.889 291.578C462.704 290.775 467.193 292.395 473.036 298.806C519.963 297.872 567.809 298.68 614.793 298.709C608.23 305.737 600.06 315.907 593.827 323.416L565.998 356.749C559.579 364.474 544.216 381.478 539.648 388.362C539.754 407.124 536.026 416.291 515.679 418.522C511.544 422.692 505.72 430.059 501.772 434.778L480.154 460.496L564.513 459.983C568.009 457.688 572.655 454.59 576.808 454.061C604.847 450.488 610.532 492.081 579.743 495.606C572.904 495.103 569.571 492.848 564.589 488.641L469.543 488.452C453.383 488.464 433.589 488.032 417.618 489.104C421.661 484.043 428.317 477.352 432.893 471.991L474.63 422.631C479.936 416.316 489.456 405.433 493.961 398.93C492.938 383.938 499.789 372.914 515.621 371.806C517.144 370.262 518.518 368.593 519.935 366.952C531.379 353.703 542.314 340.016 553.764 326.774C543.924 327.311 530.199 326.853 520.168 326.759C504.452 326.56 488.734 326.662 473.021 327.064C465.035 332.499 457.006 336.352 447.535 331.077C442.359 328.167 438.545 323.327 436.926 317.614C435.388 312.26 436.11 306.509 438.923 301.7C442.494 295.728 447.424 293.151 453.889 291.578ZM504.517 414.941L498.722 410.279C481.37 432.724 460.049 455.819 441.944 478.029C467.424 477.421 494.747 477.946 520.361 477.899L552.945 477.855C557.803 477.859 565.832 477.652 570.49 478.026C574.668 484.446 577.85 487.378 585.258 483.081C587.941 480.347 589.645 478.471 589.556 474.365C589.478 471.357 588.125 468.523 585.834 466.572C583.866 464.889 581.248 463.95 578.653 464.257C576.043 464.587 573.684 465.976 572.129 468.098C571.435 469.043 570.795 470.385 570.279 471.453L492.325 471.17C481.75 471.173 468.292 470.805 457.98 471.325C469.74 454.175 485.292 439.099 498.245 422.83C500.326 420.217 502.402 417.516 504.517 414.941ZM514.013 383.196C507.584 384.792 503.595 391.216 505.014 397.686C506.434 404.155 512.746 408.319 519.252 407.077C523.622 406.242 527.194 403.101 528.579 398.874C529.965 394.646 528.945 390 525.917 386.741C522.889 383.482 518.33 382.125 514.013 383.196ZM590.517 309.531C549.671 309.51 508.043 309.074 467.256 309.543C462.995 303.76 461.328 302.009 453.903 302.591C438.083 311.871 453.776 332.962 467.113 316.491L540.069 316.546C550.768 316.519 566.152 316.87 576.686 316.096C565.534 328.897 554.538 341.834 543.702 354.904C539.906 359.49 531.332 369.513 528.716 374.125L528.798 374.974L530.913 376.54C532.509 377.443 532.591 377.898 533.913 377.589C545.417 365.772 557.815 350.463 568.35 337.681C574.492 330.229 585.375 317.253 590.517 309.531Z"/><path fill="#A9A8A9" fill-opacity="0.019607844" d="M461.877 260.236C489.225 247.415 505.501 249.788 534.983 250.562C538.911 250.665 550.487 251.879 553.272 251.365L551.183 249.865L551.354 249.332C569.301 248.581 578.672 255.182 592.657 264.604C598.982 268.865 612.728 274.671 615.807 281.825L615.51 282.51C612.662 282.013 611.137 280.298 609.881 280.897C609.457 280.076 627.632 295.638 628.921 296.65C636.853 302.879 640.863 316.014 649.437 319.494L650.331 319.292C650.497 317.44 643.781 307.777 642.251 305.518L642.845 305.985C647.731 309.862 647.752 312.193 651.125 316.465C650.297 314.626 648.101 310.256 648.062 308.543C649.418 308.246 648.865 308.292 650.322 308.698L650.671 308.077C649.663 304.821 647.281 301.581 645.416 298.624C655.013 308.052 668.177 331.116 674.009 343.705C675.618 347.179 676.476 352.592 678.158 355.82L678.638 355.611L678.927 354.034C680.134 355.263 682.557 361.612 683.168 363.439C684.704 368.028 684.916 378.611 686.998 382.502C687.667 384.445 688.128 385.248 687.958 387.233L687.34 387.252C682.486 380.616 684.519 372.48 681.982 369.796C679.828 369.933 679.936 371.321 680.371 372.989L682.208 373.505C682.59 374.946 682.716 374.319 682.226 375.484C681.536 375.466 680.803 375.614 680.376 375.188C676.701 371.525 676.735 368.489 676.43 364.131C676.218 361.094 670.676 356.943 672.937 351.999C673.051 351.749 668.203 346.84 668.454 345.776C668.709 343.828 668.697 342.822 668.539 341.579C667.395 341.479 667.765 341.596 666.722 341.153C666.199 338.744 665.633 336.12 664.95 333.762C663.618 329.168 661.736 332.263 661.453 326.731C659.995 326.164 658.077 327.588 657.642 327.412C655.15 326.405 654.092 322.837 651.284 322.292C642.271 320.54 642.968 316.494 637.417 311.218C638.87 312.599 633.818 308.81 634.721 309.481C631.584 298.367 629.441 300.26 622.64 295.154L622.518 293.233L618.85 290.7L617.606 291.731L616.623 291.451C616.416 290.008 616.459 289.81 615.885 288.499L614.888 288.112C613.362 289.5 613.164 289.786 611.331 290.618L610.483 290.253C609.619 287.499 610.759 290.339 611.875 287.894C611.428 286.028 611.331 283.362 609.208 283.15C609.717 283.968 609.858 284.192 610.281 285.072C608.202 284.833 607.257 284.029 606.398 282.252C606.896 280.436 608.192 278.811 609.267 277.224C605.273 273.003 600.686 274.347 598.736 270.183C595.897 268.804 593.094 267.934 590.246 266.068C581.907 260.603 573.152 253.695 563.317 251.287C560.094 250.754 557.552 253.446 554.517 253.543C545.842 253.822 536.802 250.947 528.165 251.68C525.492 251.906 524.378 254.049 520.609 253.495L520.342 251.739C514.517 250.396 508.404 253.2 502.314 252.927C493.214 252.519 482.28 255.012 473.291 256.903C469.527 257.695 466.347 259.96 462.987 261.925L462.326 261.645L461.877 260.236Z"/><path fill="#F1F3F3" fill-opacity="0.011764706" d="M547.876 206.723C550.127 206.516 552.632 206.303 554.494 207.484C554.904 209.389 554.907 208.44 554.301 210.43C551.094 211.108 548.3 210.036 545.815 210.925C545.277 212.163 545.412 211.495 545.826 213.037C548.72 215.731 554.832 212.746 555.422 215.847C553.938 216.046 553.429 215.814 552.674 216.66C554.786 217.52 558.531 218.559 560.817 218.89C562.985 219.582 570.269 221.747 571.871 222.769C569.459 222.79 561.871 220.713 559.134 219.957C553.9 218.875 548.668 217.665 543.43 216.637L543.15 216.162L545.774 215.819C544.7 215.169 543.629 214.513 542.562 213.852C542.636 212.274 544.095 211.165 545.354 209.715C538.125 209.457 532.683 209.879 525.395 208.688C526.863 207.939 550.948 209.087 554.805 209.135C552.62 208.284 550.117 207.491 547.876 206.723Z"/><path fill="#F1F3F3" fill-opacity="0.023529412" d="M368.874 386.882C368.727 376.747 373.373 352.32 377.498 343.087C376.471 353.208 371.209 365.337 371.519 376.257C371.563 377.82 370.944 382.753 370.427 384.164L370.06 383.986C369.684 385.961 370.048 385.66 368.874 386.882Z"/><path fill="#4ecdb8" d="M565.759 217.513C568.938 217.464 571.427 218.326 574.075 220.078L574.363 220.818C573.051 221.353 572.963 221.253 572.398 222.574L571.871 222.769C570.269 221.747 562.985 219.582 560.817 218.89C561.78 218.521 564.573 217.853 565.759 217.513Z"/><path fill="#5eead4" fill-opacity="0.98823529" d="M559.134 219.957C561.871 220.713 569.459 222.79 571.871 222.769L572.398 222.574L572.246 224.092C569.17 224.66 561.411 221.662 557.082 221.443L559.134 219.957Z"/><path fill="#F1F3F3" fill-opacity="0.050980393" d="M583.814 230.671C586.383 231.256 601.427 237.865 602.639 239.624C596.668 237.485 589.688 233.831 583.555 231.324L583.814 230.671Z"/><path fill="#5eead4" d="M560.817 218.89C558.531 218.559 554.786 217.52 552.674 216.66C553.429 215.814 553.938 216.046 555.422 215.847C558.949 217.811 561.895 216.73 565.759 217.513C564.573 217.853 561.78 218.521 560.817 218.89Z"/><path fill="#FFFEFE" fill-opacity="0.89411765" d="M696.569 390.011C696.467 387.285 696.026 378.392 696.986 376.041C697.706 379.743 697.652 383.383 697.724 387.147C697.354 388.178 697.105 389.059 696.569 390.011Z"/><path fill="#5eead4" fill-opacity="0.98039216" d="M697.724 387.147C697.751 388.172 697.88 390.797 697.81 391.696C697.57 393.022 697.46 393.951 696.945 395.215C696.305 394.452 696.509 394.798 696.227 394.247L696.569 390.011C697.105 389.059 697.354 388.178 697.724 387.147Z"/></svg>